<?xml version="1.0" encoding="utf-8"?>
<!-- Generator: Adobe Illustrator 19.0.0, SVG Export Plug-In . SVG Version: 6.00 Build 0)  -->
<svg version="1.1" id="Layer_1" xmlns="http://www.w3.org/2000/svg" xmlns:xlink="http://www.w3.org/1999/xlink" x="0px" y="0px"
	 viewBox="0 0 150 150" style="enable-background:new 0 0 150 150;" xml:space="preserve">
<style type="text/css">
	.st0{fill:#E45C4C;stroke:#000000;stroke-miterlimit:20;}
	.st1{fill:#FFF498;stroke:#000000;stroke-width:4;stroke-miterlimit:20;}
	.st2{fill:none;}
	.st3{fill:#E45C4C;stroke:#000000;stroke-width:2;stroke-miterlimit:20;}
	.st4{font-family:'Barlow-SemiBold';}
	.st5{font-size:70px;}
</style>
<path id="XMLID_4_" class="st0" d="M132,139.7H18c-6.6,0-12-5.4-12-12V20.3c0-6.6,5.4-12,12-12H132c6.6,0,12,5.4,12,12v107.4
	C144,134.3,138.6,139.7,132,139.7z"/>
<path id="XMLID_1_" class="st1" d="M123.4,131.2H26.6c-6.6,0-12-5.4-12-12v-91c0-6.6,5.4-12,12-12h96.8c6.6,0,12,5.4,12,12v91
	C135.4,125.8,130,131.2,123.4,131.2z"/>
<rect id="XMLID_2_" x="29.5" y="49.5" transform="matrix(0.9998 -1.902510e-02 1.902510e-02 0.9998 -1.7816 1.745)" class="st2" width="122.7" height="90"/>
<text id="XMLID_3_" transform="matrix(1 0 0 1 29.5314 97.3491)" class="st3 st4 st5">MB</text>
</svg>
